<svg width="48" height="32" viewBox="0 0 48 32" fill="none" xmlns="http://www.w3.org/2000/svg">
<g clip-path="url(#clip0_1_5)">
<path d="M47.9262 6.49181C48.3033 7.54099 47.0738 9.95082 44.2377 13.7213C43.8443 14.2459 43.3115 14.9426 42.6393 15.8115C41.9836 16.6475 41.5328 17.2377 41.2869 17.582C41.041 17.9262 40.791 18.332 40.5369 18.7992C40.2828 19.2664 40.1844 19.6107 40.2418 19.832C40.2992 20.0533 40.4057 20.3361 40.5615 20.6803C40.7172 21.0246 40.9836 21.3771 41.3607 21.7377C41.7377 22.0984 42.2049 22.5328 42.7623 23.041C42.8279 23.0738 42.8689 23.1066 42.8852 23.1393C45.1967 25.2869 46.7623 27.0984 47.582 28.5738C47.6311 28.6557 47.6844 28.7582 47.7418 28.8811C47.7992 29.0041 47.8566 29.2213 47.9139 29.5328C47.9713 29.8443 47.9672 30.123 47.9016 30.3689C47.8361 30.6148 47.6311 30.8402 47.2869 31.0451C46.9426 31.25 46.459 31.3525 45.8361 31.3525L39.541 31.4508C39.1475 31.5328 38.6885 31.4918 38.1639 31.3279C37.6393 31.1639 37.2131 30.9836 36.8852 30.7869L36.3934 30.4918C35.9016 30.1475 35.3279 29.623 34.6721 28.918C34.0164 28.2131 33.4549 27.5779 32.9877 27.0123C32.5205 26.4467 32.0205 25.9713 31.4877 25.5861C30.9549 25.2008 30.4918 25.0738 30.0984 25.2049C30.0492 25.2213 29.9836 25.25 29.9016 25.291C29.8197 25.332 29.6803 25.4508 29.4836 25.6475C29.2869 25.8443 29.1107 26.0861 28.9549 26.373C28.7992 26.6598 28.6598 27.0861 28.5369 27.6516C28.4139 28.2172 28.3607 28.8525 28.3771 29.5574C28.3771 29.8033 28.3484 30.0287 28.291 30.2336C28.2336 30.4385 28.1721 30.5902 28.1066 30.6885L28.0082 30.8115C27.7131 31.123 27.2787 31.3033 26.7049 31.3525H23.8771C22.7131 31.418 21.5164 31.2828 20.2869 30.9467C19.0574 30.6107 17.9795 30.1762 17.0533 29.6434C16.1271 29.1107 15.2828 28.5697 14.5205 28.0205C13.7582 27.4713 13.1803 27 12.7869 26.6066L12.1721 26.0164C12.0082 25.8525 11.7828 25.6066 11.4959 25.2787C11.209 24.9508 10.623 24.2049 9.73771 23.041C8.85246 21.8771 7.98361 20.6393 7.13115 19.3279C6.27869 18.0164 5.27459 16.2869 4.11886 14.1393C2.96312 11.9918 1.89345 9.7623 0.90984 7.45082C0.811479 7.18853 0.762299 6.96722 0.762299 6.78689C0.762299 6.60656 0.786889 6.47541 0.836069 6.39344L0.93443 6.2459C1.18033 5.93443 1.64754 5.77869 2.33607 5.77869L9.07377 5.72951C9.27049 5.7623 9.45902 5.81558 9.63935 5.88935C9.81968 5.96312 9.95082 6.03279 10.0328 6.09836L10.1557 6.17213C10.418 6.35246 10.6148 6.61476 10.7459 6.95902C11.0738 7.77869 11.4508 8.62705 11.8771 9.5041C12.3033 10.3811 12.6393 11.0492 12.8852 11.5082L13.2787 12.2213C13.7541 13.2049 14.2131 14.0574 14.6557 14.7787C15.0984 15.5 15.4959 16.0615 15.8484 16.4631C16.2008 16.8648 16.541 17.1803 16.8689 17.4098C17.1967 17.6393 17.4754 17.7541 17.7049 17.7541C17.9344 17.7541 18.1557 17.7131 18.3689 17.6311C18.4016 17.6148 18.4426 17.5738 18.4918 17.5082C18.541 17.4426 18.6393 17.2623 18.7869 16.9672C18.9344 16.6721 19.0451 16.2869 19.1189 15.8115C19.1926 15.3361 19.2705 14.6721 19.3525 13.8197C19.4344 12.9672 19.4344 11.9426 19.3525 10.7459C19.3197 10.0902 19.2459 9.49181 19.1312 8.95082C19.0164 8.40984 18.9016 8.03279 18.7869 7.81967L18.6393 7.52459C18.2295 6.96722 17.5328 6.61476 16.5492 6.46722C16.3361 6.43443 16.3771 6.23771 16.6721 5.87705C16.9344 5.56558 17.2459 5.31967 17.6066 5.13935C18.4754 4.71312 20.4344 4.5164 23.4836 4.54918C24.8279 4.56558 25.9344 4.67213 26.8033 4.86885C27.1311 4.95082 27.4057 5.06148 27.6271 5.20082C27.8484 5.34017 28.0164 5.53689 28.1311 5.79099C28.2459 6.04508 28.332 6.30738 28.3893 6.57787C28.4467 6.84836 28.4754 7.22131 28.4754 7.69672C28.4754 8.17213 28.4672 8.62295 28.4508 9.04918C28.4344 9.47541 28.4139 10.0533 28.3893 10.7828C28.3648 11.5123 28.3525 12.1885 28.3525 12.8115C28.3525 12.9918 28.3443 13.3361 28.3279 13.8443C28.3115 14.3525 28.3074 14.7459 28.3156 15.0246C28.3238 15.3033 28.3525 15.6352 28.4016 16.0205C28.4508 16.4057 28.5451 16.7254 28.6844 16.9795C28.8238 17.2336 29.0082 17.4344 29.2377 17.582C29.3689 17.6148 29.5082 17.6475 29.6557 17.6803C29.8033 17.7131 30.0164 17.623 30.2951 17.4098C30.5738 17.1967 30.8852 16.9139 31.2295 16.5615C31.5738 16.209 32 15.6598 32.5082 14.9139C33.0164 14.168 33.5738 13.2869 34.1803 12.2705C35.1639 10.5656 36.041 8.72131 36.8115 6.73771C36.8771 6.57377 36.959 6.43033 37.0574 6.30738C37.1557 6.18443 37.2459 6.09836 37.3279 6.04918L37.4262 5.97541L37.5492 5.91394L37.8689 5.84017L38.3607 5.82787L45.4426 5.77869C46.082 5.69672 46.6066 5.71722 47.0164 5.84017C47.4262 5.96312 47.6803 6.09836 47.7787 6.2459L47.9262 6.49181Z" fill="white"/>
</g>
<defs>
<clipPath id="clip0_1_5">
<rect width="48" height="31.4754" fill="white"/>
</clipPath>
</defs>
</svg>
